Coordinates
version=1
nRows=8
nColumns=33
inDegrees=yes

Units are S.I. units (second, meters, Newtons, ...)
Angles are in degrees.

endheader
time	ground_thorax_rot_x	ground_thorax_rot_y	ground_thorax_rot_z	ground_thorax_tx	ground_thorax_ty	ground_thorax_tz	clav_prot_r	clav_elev_r	scapula_abduction_r	scapula_elevation_r	scapula_upward_rot_r	scapula_winging_r	shoulder_elv_r	plane_of_elev_r	axial_rot_r	elbow_flexion_r	pro_sup_r	wrist_flex_r	wrist_dev_r	clav_prot_l	clav_elev_l	scapula_abduction_l	scapula_elevation_l	scapula_upward_rot_l	scapula_winging_l	shoulder_elv_l	plane_of_elev_l	axial_rot_l	elbow_flexion_l	pro_sup_l	wrist_flex_l	wrist_dev_l
      3.78000000	     39.29607253	     11.56089071	     13.79108605	   -219.50432782	    840.97278342	      4.31038564	     12.60657304	     39.86670552	     39.17684569	     45.00000000	    -29.93875921	  -1890.79259938	  -4791.96714517	    146.38720530	   -133.98177088	   2532.60193591	     16.66915409	     19.82408792	      6.38380477	      7.06674645	    -45.00000000	    -36.98110728	     45.00000000	    -40.07127199	   1537.95783053	  -3332.75160247	    138.68686681	    151.57147424	   1450.73237117	      1.21460388	      6.15872908	    -19.72212299
      3.79000000	     39.28094406	     11.46598670	     13.76310271	   -221.06764250	    841.74733945	      4.19152353	     12.56470350	     39.88888734	     38.98558739	     45.00000000	    -30.21804838	  -1890.79085703	  -4791.83174117	    146.24339022	   -133.84649633	   2532.58237583	     16.97747642	     19.82655601	      6.16834252	      7.10186931	    -45.00000000	    -36.90055602	     45.00000000	    -40.43296423	   1538.07710990	  -3332.62347836	    138.65782714	    151.27021461	   1450.72177625	      1.20295144	      5.99404022	    -19.72587049
      3.80000000	     39.05839304	     12.12171782	     14.55284678	   -222.62518983	    842.50378703	      4.07856277	     12.80261015	     39.59873541	     38.85611927	     45.00000000	    -31.41054715	  -1890.80787185	  -4791.56372252	    146.32257816	   -133.78331727	   2532.83320275	     17.65678776	     19.84052783	      6.04473264	      7.57032890	    -45.00000000	    -36.75870922	     45.00000000	    -42.29696024	   1538.22620042	  -3332.26012007	    138.59635115	    151.45181764	   1450.81004523	      1.18174084	      5.72983672	    -19.70374317
      3.81000000	     39.06111502	     11.88915728	     14.32952377	   -224.17354306	    843.23802635	      3.97210110	     12.71191249	     39.60103219	     38.78014563	     45.00000000	    -31.41797253	  -1890.78044992	  -4791.46261118	    146.38852130	   -133.87507974	   2532.96871688	     18.26999961	     19.90069296	      5.94216545	      7.44748755	    -45.00000000	    -36.79383283	     45.00000000	    -42.05413150	   1538.33632387	  -3332.27036893	    138.72373417	    151.44797039	   1450.82773896	      1.35243978	      5.77845905	    -19.74169293
      3.82000000	     39.01248026	     11.86298136	     14.38777045	   -225.71609130	    843.94884099	      3.87239498	     12.72069337	     39.48009748	     38.66625714	     45.00000000	    -31.85497116	  -1890.72346386	  -4791.27547323	    146.27867725	   -133.74754994	   2532.97641533	     19.04220194	     19.88701932	      5.78079526	      7.59056923	    -45.00000000	    -36.67562467	     45.00000000	    -42.45588802	   1538.52690960	  -3332.14988537	    138.68991028	    151.13197185	   1450.78541595	      1.66197013	      5.56100364	    -19.73252881
      3.83000000	     38.97291790	     11.79610800	     14.34369641	   -227.25162848	    844.63263519	      3.77993841	     12.67917376	     39.42525383	     38.58384889	     45.00000000	    -32.04182417	  -1890.76206178	  -4791.19897266	    146.29487557	   -133.73632338	   2533.06541187	     19.79427415	     19.88128337	      5.56450908	      7.59801346	    -45.00000000	    -36.67600367	     45.00000000	    -42.58026640	   1538.68081072	  -3332.09017799	    138.75332301	    150.94447713	   1450.79516175	      2.05311523	      5.44064211	    -19.75259943
      3.84000000	     38.93046968	     11.82383282	     14.43721503	   -228.78181855	    845.28686613	      3.69519821	     12.69381659	     39.27724190	     38.48575281	     45.00000000	    -32.46349833	  -1890.78509482	  -4791.06283273	    146.20649923	   -133.69749422	   2533.04480597	     20.69080580	     19.81879267	      5.33183965	      7.74671135	    -45.00000000	    -36.52848607	     45.00000000	    -43.14574670	   1538.85480497	  -3331.95231751	    138.64357368	    150.84964063	   1450.75415103	      2.56926139	      5.20947277	    -19.74375872
      3.85000000	     38.90871317	     11.74612289	     14.39321922	   -230.30764870	    845.90840752	      3.61881638	     12.66396074	     39.19242101	     38.40611048	     45.00000000	    -32.73020699	  -1890.78029097	  -4790.96540166	    146.17555284	   -133.69946786	   2533.08415745	     21.59430690	     19.77302695	      5.11821124	      7.79728829	    -45.00000000	    -36.49624668	     45.00000000	    -43.40437165	   1539.01164453	  -3331.88443197	    138.63459977	    150.64783580	   1450.75594661	      3.20290751	      5.04324593	    -19.76011816
